<svg xmlns="http://www.w3.org/2000/svg" viewBox="0 0 50 50"><defs/><path fill="none" d="M0 0h50v50H0z"/><circle cx="25" cy="24" r="12" fill="none" stroke="#fff" stroke-linecap="round" stroke-miterlimit="10" stroke-width="2"/><circle cx="25" cy="24" r="8" fill="none" stroke="#fff" stroke-linecap="round" stroke-miterlimit="10" stroke-width="2"/><path fill="none" stroke="#fff" stroke-linecap="round" stroke-miterlimit="10" stroke-width="2" d="M47 10H37c-1.469 0-2.484-4-4-4H17c-1.516 0-2.531 4-4 4H3a2 2 0 00-2 2v27a2 2 0 002 2h44a2 2 0 002-2V12a2 2 0 00-2-2z"/><path d="M9 14H8a2 2 0 000 4h1a2 2 0 000-4z" fill="#fff"/></svg>
