<svg xmlns="http://www.w3.org/2000/svg" viewBox="0 0 128 128"><path fill="#dbdbdb" d="M100.031 8.094c-2.987-.003-6.424.181-10.187.594-10.035 1.1-21.033 3.844-27.906 6.593-6.874 2.75-10.013 5.758-11.25 10.844-1.238 5.086-3.6 16.514-3.876 23.938-.274 7.423.438 12.5.438 12.5S60.558 47.71 67.156 42.624c6.599-5.086 26.264-19.095 33-22.531 6.736-3.437 11.707-5.632 13.219-7.282 1.512-1.65 1.23-2.893-2.344-3.718-2.234-.516-6.02-.995-11-1zM84.156 36.53c-3.813.161-6.645 2.16-12.531 6.063-7.848 5.204-13.563 12.812-13.563 12.812s16.258-.036 24.907.313c8.649.349 23.924 3.748 25.625 4.312 1.7.565 3.072.837 2.844-.75-.23-1.586-4.946-11.316-8.438-14.718-3.492-3.403-8-6.182-14.563-7.594-1.64-.353-3.01-.491-4.28-.438zM73.031 55.78s8.879 13.641 13.281 21.094c4.403 7.453 9.801 22.109 10.25 23.844.45 1.735.98 3.053 2.188 2 1.208-1.054 6.82-10.283 7.781-15.063.962-4.78.847-10.065-1.531-16.344-2.378-6.278-5.212-7.328-13.844-11.093-8.632-3.765-18.125-4.438-18.125-4.438zm7.156 14.032s-4.85 15.542-7.78 23.687c-2.932 8.145-10.795 21.672-11.844 23.125-1.05 1.453-1.739 2.68-.157 2.938s12.3-1.317 16.594-3.626c4.295-2.308 8.276-5.757 11.594-11.593 3.318-5.836 2.325-8.701-.281-17.75-2.607-9.05-8.126-16.781-8.126-16.781zm-6.156 13.906s-14.983 6.35-23.094 9.375c-8.11 3.024-23.494 5.769-25.28 5.906-1.788.137-3.17.407-2.345 1.781.825 1.375 8.933 8.526 13.47 10.313 4.536 1.787 9.776 2.612 16.374 1.375 6.599-1.237 8.089-3.852 13.313-11.688 5.224-7.835 7.562-17.062 7.562-17.062z"/></svg>
